<?xml version="1.0" encoding="UTF-8"?>
<svg version="1.1" xmlns="http://www.w3.org/2000/svg" width="512" height="512">
<path d="M0 0 C1.00638268 -0.00525696 1.00638268 -0.00525696 2.03309631 -0.01062012 C4.2292852 -0.01935173 6.42514629 -0.01361829 8.62133789 -0.00683594 C10.16158611 -0.00818521 11.70183392 -0.01012793 13.24208069 -0.01263428 C16.46220983 -0.01557407 19.68222761 -0.01132547 22.90234375 -0.00195312 C27.01216232 0.00943113 31.12171932 0.00288124 35.23152828 -0.00909805 C38.41014037 -0.01635588 41.58869136 -0.01401062 44.76730537 -0.00884247 C46.28183588 -0.0075163 47.79637208 -0.00911714 49.31089592 -0.01380157 C67.39901081 -0.05747351 67.39901081 -0.05747351 74.21899414 4.44628906 C79.18436955 9.64261216 80.28204109 14.53268913 80.27563763 21.57009792 C80.27909916 22.27547317 80.28256069 22.98084841 80.28612712 23.70759866 C80.29405172 26.06516493 80.28062325 28.42211335 80.26725769 30.77964783 C80.26856632 32.48923323 80.2711938 34.19881804 80.27502519 35.90839964 C80.28173081 40.60151139 80.26973639 45.29441761 80.254691 49.98750317 C80.24173605 55.05014035 80.24611972 60.11276594 80.24839783 65.17541504 C80.2499709 73.94524316 80.2405581 82.71500432 80.22368431 91.4848156 C80.19930355 104.16448155 80.19148998 116.84411513 80.18772034 129.52380199 C80.18115441 150.09572033 80.16118939 170.66760299 80.1328125 191.23950195 C80.1052756 211.22322409 80.08404021 231.20693654 80.07128906 251.19067383 C80.07050089 252.42246394 80.06971272 253.65425405 80.06890067 254.92337113 C80.06498556 261.10289805 80.06119443 267.28242505 80.05746496 273.46195209 C80.02636465 324.72758908 79.97352498 375.99318733 79.90649414 427.25878906 C81.87682617 427.20658203 81.87682617 427.20658203 83.88696289 427.15332031 C85.62262715 427.12517441 87.35830529 427.09787511 89.09399414 427.07128906 C90.39046875 427.03358398 90.39046875 427.03358398 91.71313477 426.99511719 C96.59484636 426.93900556 99.97381614 427.00388723 103.90649414 430.25878906 C105.05012526 432.5460513 105.17151346 434.08731333 105.28149414 436.63378906 C105.33047852 437.40464844 105.37946289 438.17550781 105.42993164 438.96972656 C104.62684742 442.48172175 102.915069 443.36174716 99.90649414 445.25878906 C96.96506935 445.64345015 94.40267025 445.79693723 91.46530151 445.76215363 C90.61346668 445.76796739 89.76163186 445.77378115 88.88398385 445.77977109 C86.01603976 445.7944241 83.14894439 445.78046113 80.28100586 445.76672363 C78.2095998 445.77133044 76.138197 445.77768188 74.06680107 445.78563261 C68.36407235 445.80237915 62.66161029 445.79405533 56.95888042 445.78168774 C50.81292065 445.77266135 44.66700769 445.78659498 38.52105713 445.79760742 C27.17351278 445.81439265 15.8260775 445.81290071 4.47853583 445.80196155 C-6.00384089 445.79190583 -16.48618634 445.78926948 -26.96856689 445.79405212 C-27.66344366 445.79435766 -28.35832042 445.7946632 -29.07425405 445.794978 C-31.89486884 445.79622332 -34.71548361 445.79749692 -37.53609837 445.79881706 C-64.00451631 445.81105759 -90.4728799 445.79995205 -116.94128945 445.77842947 C-140.46536467 445.75944654 -163.98935328 445.76114502 -187.51342773 445.78027344 C-213.93292253 445.80168434 -240.3523693 445.81018955 -266.77187157 445.79782438 C-269.58739598 445.79654148 -272.4029204 445.79529012 -275.21844482 445.79405212 C-275.91171675 445.79373581 -276.60498867 445.79341951 -277.31926884 445.79309361 C-287.79596859 445.78854056 -298.27263366 445.79387069 -308.74932861 445.80397034 C-320.65985456 445.81539485 -332.57027819 445.81218889 -344.48080015 445.79084736 C-350.56136349 445.7803123 -356.64175076 445.77625697 -362.72231293 445.78944397 C-368.28363637 445.80132276 -373.84461977 445.79487993 -379.40591216 445.77353376 C-381.42265858 445.76904851 -383.43943346 445.77137674 -385.45616174 445.78103691 C-388.18862599 445.79312612 -390.91991148 445.78080224 -393.65231323 445.76215363 C-394.44313034 445.77151829 -395.23394744 445.78088295 -396.0487287 445.7905314 C-399.77347231 445.73940284 -401.90594855 445.3775018 -405.08397102 443.36600065 C-407.09350586 441.25878906 -407.09350586 441.25878906 -407.68725586 439.04003906 C-407.43533176 432.90988602 -407.43533176 432.90988602 -405.78100586 429.75878906 C-402.93958466 427.23308133 -400.27654799 427.13675522 -396.64428711 427.16113281 C-395.79672852 427.16435547 -394.94916992 427.16757812 -394.07592773 427.17089844 C-393.19485352 427.17927734 -392.3137793 427.18765625 -391.40600586 427.19628906 C-390.06699219 427.20305664 -390.06699219 427.20305664 -388.70092773 427.20996094 C-386.49838599 427.22173924 -384.29597987 427.23818742 -382.09350586 427.25878906 C-382.10016769 426.15711395 -382.10682953 425.05543884 -382.11369324 423.92037964 C-382.17453671 413.53268196 -382.2194941 403.14502049 -382.24894238 392.75718498 C-382.26459104 387.41682375 -382.28581491 382.0766065 -382.31982422 376.73632812 C-382.35244588 371.58162141 -382.37036489 366.42705311 -382.37813759 361.27225113 C-382.38367603 359.30668077 -382.39449127 357.3411179 -382.41069603 355.37560654 C-382.43250749 352.62019291 -382.43547122 349.8653495 -382.43408203 347.10986328 C-382.44486786 346.29921921 -382.45565369 345.48857513 -382.46676636 344.65336609 C-382.43244383 338.35222708 -380.91420072 334.31290634 -376.65600586 329.50878906 C-372.03280915 325.44939683 -368.53761928 324.96314803 -362.48266602 324.98413086 C-361.34044838 324.97646446 -361.34044838 324.97646446 -360.17515564 324.96864319 C-357.66087965 324.95475697 -355.14687812 324.95570339 -352.63256836 324.95800781 C-350.88145852 324.95411998 -349.13034962 324.94978512 -347.37924194 324.94502258 C-343.7090957 324.93756219 -340.03904565 324.93785006 -336.36889648 324.94311523 C-331.67244703 324.94890567 -326.9763925 324.9319884 -322.28000832 324.90877056 C-318.66311349 324.89401615 -315.04631336 324.89316391 -311.42939377 324.89628029 C-309.69828892 324.8957678 -307.96717866 324.89054374 -306.23610306 324.88046837 C-303.81152184 324.8680898 -301.38770436 324.87490404 -298.96313477 324.88647461 C-298.25228226 324.87883087 -297.54142975 324.87118713 -296.80903625 324.86331177 C-291.50199005 324.91910627 -287.37519844 326.12884801 -283.44897461 329.79394531 C-279.35148075 335.15220651 -278.95173674 338.21121597 -278.97998047 344.83935547 C-278.97983444 345.72722244 -278.97968842 346.61508942 -278.97953796 347.52986145 C-278.9802363 350.47338275 -278.98802505 353.41684128 -278.99584961 356.36035156 C-278.99771407 358.39773524 -278.99913784 360.43511937 -279.00013733 362.47250366 C-279.00396031 367.84176872 -279.01378875 373.21100684 -279.02484131 378.58026123 C-279.03685596 385.01880334 -279.04145871 391.45735444 -279.04729462 397.89590454 C-279.0570006 407.68355146 -279.07615871 417.47113925 -279.09350586 427.25878906 C-254.01350586 427.25878906 -228.93350586 427.25878906 -203.09350586 427.25878906 C-203.10397949 421.57007568 -203.11445313 415.8813623 -203.12524414 410.02026367 C-203.15835322 391.24480145 -203.18056511 372.4693381 -203.1971302 353.69385433 C-203.20744263 342.3080134 -203.22150236 330.92220013 -203.24438477 319.53637695 C-203.26431963 309.61246347 -203.27722254 299.68857001 -203.28168285 289.76463705 C-203.28429005 284.51004244 -203.29041751 279.25550513 -203.30496597 274.00092888 C-203.31855135 269.05406981 -203.32272654 264.1072916 -203.31972122 259.16041565 C-203.32027095 257.34599938 -203.32424269 255.53158038 -203.33191681 253.71718025 C-203.341893 251.23660186 -203.33946501 248.75632726 -203.33401489 246.27574158 C-203.33984058 245.56074224 -203.34566626 244.8457429 -203.35166848 244.10907692 C-203.3099689 237.06891912 -202.07628477 231.38393308 -197.09350586 226.25878906 C-191.71074915 222.49085937 -187.45500943 222.13219203 -180.95751953 222.09765625 C-180.24641525 222.09269135 -179.53531097 222.08772644 -178.80265808 222.08261108 C-176.45558699 222.06803438 -174.10858349 222.06119483 -171.76147461 222.05566406 C-170.12486266 222.04990872 -168.48825072 222.04415104 -166.85163879 222.03839111 C-163.42110888 222.02789377 -159.99060231 222.02204289 -156.56005859 222.01855469 C-152.17536371 222.01307395 -147.79097997 221.98904968 -143.40638256 221.96058273 C-140.02536634 221.94191112 -136.64442439 221.93674834 -133.26336098 221.93521881 C-131.64750786 221.93220174 -130.03165575 221.92420527 -128.4158535 221.91103363 C-126.14955699 221.89387859 -123.8840118 221.89587601 -121.61767578 221.90234375 C-119.68718636 221.89687531 -119.68718636 221.89687531 -117.71769714 221.89129639 C-110.99924332 222.57254701 -106.57952997 225.13190437 -102.09350586 230.25878906 C-98.75525587 235.26616404 -98.94953643 240.16663179 -98.97325134 246.03523254 C-98.97196971 247.19932782 -98.97196971 247.19932782 -98.97066218 248.38694018 C-98.96901711 250.98332552 -98.97451282 253.57964602 -98.97998047 256.17602539 C-98.98026258 258.03880817 -98.98010415 259.90159106 -98.97953796 261.76437378 C-98.97925091 266.81971133 -98.98513284 271.87502518 -98.99211192 276.93035722 C-98.99836071 282.21412425 -98.99895047 287.49789183 -99.00013733 292.78166199 C-99.00324614 302.78651148 -99.01145347 312.79135005 -99.02148682 322.79619473 C-99.03266192 334.18666081 -99.03816193 345.57712741 -99.04318225 356.9675976 C-99.05363645 380.39800221 -99.07197635 403.82839184 -99.09350586 427.25878906 C-74.01350586 427.25878906 -48.93350586 427.25878906 -23.09350586 427.25878906 C-23.10238831 422.07296112 -23.11127075 416.88713318 -23.12042236 411.54415894 C-23.19997727 364.01596696 -23.25971365 316.48778285 -23.29776718 268.95953887 C-23.30277015 262.73344245 -23.30794743 256.50734619 -23.31323242 250.28125 C-23.31428166 249.04171873 -23.31533091 247.80218746 -23.31641194 246.52509464 C-23.3338288 226.44085933 -23.36537355 206.35666971 -23.40211704 186.27246152 C-23.43949081 165.67230934 -23.46173417 145.07218112 -23.46985984 124.47199643 C-23.475355 111.75516797 -23.49272627 99.03846863 -23.52517173 86.32167991 C-23.54627561 77.60755017 -23.55271527 68.89348742 -23.54751137 60.17933397 C-23.54494317 55.14773996 -23.54894763 50.11637196 -23.57032776 45.08481789 C-23.58974994 40.48053126 -23.5908041 35.87662327 -23.57710144 31.27231945 C-23.57540714 29.6046522 -23.58051803 27.93696161 -23.59303859 26.2693405 C-23.60905258 24.00519028 -23.60046517 21.74241329 -23.58569717 19.47828484 C-23.58721606 18.21989166 -23.58873494 16.96149849 -23.59029984 15.66497219 C-22.84827054 10.57737496 -20.40164196 7.53157013 -16.78100586 4.00878906 C-11.54146894 0.59699758 -6.14271603 0.008119 0 0 Z " fill="#FDCC02" transform="translate(407.093505859375,62.7412109375)"/>
<path d="M0 0 C0.71110428 -0.0049649 1.42220856 -0.00992981 2.15486145 -0.01504517 C4.50193254 -0.02962187 6.84893604 -0.03646142 9.19604492 -0.04199219 C10.83265687 -0.04774753 12.46926881 -0.05350521 14.10588074 -0.05926514 C17.53641065 -0.06976248 20.96691723 -0.07561336 24.39746094 -0.07910156 C28.78215582 -0.0845823 33.16653956 -0.10860657 37.55113697 -0.13707352 C40.93215319 -0.15574513 44.31309514 -0.16090791 47.69415855 -0.16243744 C49.31001167 -0.16545451 50.92586378 -0.17345098 52.54166603 -0.18662262 C54.80796254 -0.20377766 57.07350773 -0.20178024 59.33984375 -0.1953125 C61.27033318 -0.20078094 61.27033318 -0.20078094 63.23982239 -0.20635986 C69.95827621 0.47489076 74.37798957 3.03424812 78.86401367 8.16113281 C82.19988926 13.16494619 82.00916433 18.06599844 81.99099731 23.93084717 C81.9933373 25.0938841 81.9933373 25.0938841 81.99572456 26.28041673 C81.99970833 28.8744639 81.99655512 31.4684524 81.9934082 34.0625 C81.99476336 35.92366063 81.99654394 37.78482099 81.99871826 39.64598083 C82.00327768 44.69725038 82.00150948 49.7484995 81.99833918 54.7997694 C81.99580941 60.08040103 81.9981547 65.3610309 81.99972534 70.6416626 C82.00154459 79.50541498 81.99914646 88.36915904 81.99438477 97.23291016 C81.98893591 107.49459396 81.99071031 117.75625791 81.99621117 128.01794124 C82.00074127 136.81968505 82.00139356 145.62142287 81.9987725 154.42316747 C81.99721002 159.68418151 81.99701532 164.9451862 82.00030899 170.20619965 C82.00318643 175.14734902 82.00121439 180.08847264 81.99541473 185.02961922 C81.99408674 186.84816762 81.99448192 188.66671817 81.9966774 190.48526573 C81.99938719 192.95665794 81.99600999 195.42796625 81.99099731 197.89935303 C81.9943434 198.99295171 81.9943434 198.99295171 81.99775708 200.10864329 C81.97816398 205.0469825 81.97816398 205.0469825 80.86401367 206.16113281 C77.70325023 206.2618306 74.5642934 206.29727305 71.40307617 206.29052734 C70.40967224 206.29227966 69.41626831 206.29403198 68.39276123 206.2958374 C65.09149455 206.30025792 61.79028095 206.29731722 58.48901367 206.29394531 C56.2059732 206.29461829 53.9229328 206.29558827 51.63989258 206.29684448 C46.84805623 206.29832173 42.05623849 206.29616605 37.2644043 206.29150391 C31.10684733 206.28580661 24.94933394 206.28908547 18.79177856 206.29507637 C14.0753547 206.29868127 9.35894126 206.29754373 4.64251709 206.29494858 C2.37139887 206.29427911 0.10027973 206.29510841 -2.1708374 206.29742813 C-5.33893355 206.29995349 -8.50695805 206.29611571 -11.67504883 206.29052734 C-12.62365784 206.29255157 -13.57226685 206.29457581 -14.54962158 206.29666138 C-21.02172409 206.27539505 -21.02172409 206.27539505 -22.13598633 205.16113281 C-22.23810187 202.73580183 -22.27486177 200.33879602 -22.2696991 197.91281128 C-22.27196465 197.14510442 -22.27423021 196.37739756 -22.27656442 195.58642685 C-22.28293364 192.99396362 -22.28207318 190.40155226 -22.28125 187.80908203 C-22.28423979 185.95824617 -22.2876419 184.10741094 -22.29142761 182.25657654 C-22.30029306 177.21293485 -22.30260687 172.1693101 -22.3032434 167.12566137 C-22.30419094 162.91860846 -22.30786769 158.71155953 -22.31141549 154.50450814 C-22.31957075 144.5765711 -22.32199886 134.64864313 -22.32128906 124.72070312 C-22.32068891 114.4773841 -22.33122583 104.23411785 -22.34703273 93.99081218 C-22.36011125 85.20264242 -22.36547278 76.41448989 -22.36483365 67.62631047 C-22.36457863 62.37509061 -22.36743171 57.12391755 -22.3780117 51.87270737 C-22.38769718 46.92993084 -22.38776873 41.98724578 -22.38049507 37.04446602 C-22.37944959 35.23166457 -22.38180997 33.41885742 -22.38785553 31.60606575 C-22.39558402 29.12772195 -22.3909249 26.64969331 -22.38322449 24.1713562 C-22.38836805 23.45703898 -22.39351161 22.74272177 -22.39881104 22.00675857 C-22.35062869 14.969429 -21.11695056 9.28441031 -16.13598633 4.16113281 C-10.75322962 0.39320312 -6.4974899 0.03453578 0 0 Z " fill="#FB605B" transform="translate(226.135986328125,284.8388671875)"/>
<path d="M0 0 C0.76147842 -0.00511093 1.52295685 -0.01022186 2.30751038 -0.01548767 C4.82178637 -0.02937389 7.3357879 -0.02842747 9.85009766 -0.02612305 C11.6012075 -0.03001088 13.35231639 -0.03434574 15.10342407 -0.03910828 C18.77357032 -0.04656867 22.44362037 -0.0462808 26.11376953 -0.04101562 C30.81021898 -0.03522519 35.50627352 -0.05214246 40.2026577 -0.0753603 C43.81955252 -0.09011471 47.43635266 -0.09096695 51.05327225 -0.08785057 C52.7843771 -0.08836305 54.51548735 -0.09358712 56.24656296 -0.10366249 C58.67114418 -0.11604106 61.09496165 -0.10922682 63.51953125 -0.09765625 C64.23038376 -0.10529999 64.94123627 -0.11294373 65.67362976 -0.12081909 C70.98067597 -0.06502459 75.10746758 1.14471715 79.03369141 4.80981445 C83.15116715 10.19420582 83.53072739 13.28597489 83.50268555 19.94702148 C83.50280608 20.85918364 83.50292662 21.77134579 83.5030508 22.71114922 C83.50230266 25.6724476 83.49467887 28.63368354 83.48681641 31.5949707 C83.48534668 33.41975881 83.48432616 35.24454733 83.48376465 37.06933594 C83.47851529 43.84611644 83.46455416 50.62288793 83.45166016 57.3996582 C83.43103516 72.5384082 83.41041016 87.6771582 83.38916016 103.2746582 C49.39916016 103.2746582 15.40916016 103.2746582 -19.61083984 103.2746582 C-19.67271484 88.5484082 -19.73458984 73.8221582 -19.79833984 58.6496582 C-19.82565186 54.00564941 -19.85296387 49.36164063 -19.88110352 44.5769043 C-19.89465332 38.89111328 -19.89465332 38.89111328 -19.89717102 36.22647095 C-19.9017675 34.37171264 -19.9122975 32.51696311 -19.92756653 30.66226196 C-19.94957655 27.84719346 -19.95255619 25.03267116 -19.95141602 22.2175293 C-19.96221034 21.39596533 -19.97300467 20.57440136 -19.98412609 19.72794151 C-19.94989238 13.3993282 -18.45176861 9.35160348 -14.17333984 4.5246582 C-9.55014313 0.46526597 -6.05495326 -0.02098283 0 0 Z " fill="#FDCC02" transform="translate(44.61083984375,387.725341796875)"/>
<path d="M0 0 C0.84615039 -0.00205263 1.69230079 -0.00410527 2.5640921 -0.0062201 C5.42447219 -0.01191424 8.2848045 -0.01042989 11.14518929 -0.00901413 C13.20661574 -0.01159638 15.26804169 -0.01460914 17.32946694 -0.01801753 C23.01382523 -0.02610716 28.6981709 -0.02787819 34.38253427 -0.028615 C40.50533721 -0.03046212 46.62813355 -0.03800767 52.75093269 -0.04475021 C66.84617337 -0.05905673 80.94140989 -0.0648616 95.03665609 -0.06944216 C101.99918135 -0.07177696 108.96170578 -0.07537946 115.9242304 -0.07913754 C139.74921435 -0.09197309 163.57419784 -0.10269286 187.39918518 -0.10614014 C188.89508665 -0.10636177 190.39098812 -0.10658355 191.88688958 -0.10680549 C193.38643746 -0.10702613 194.88598534 -0.10724661 196.38553321 -0.10746694 C199.39397041 -0.10790949 202.40240761 -0.10835661 205.4108448 -0.10880661 C206.1567637 -0.108916 206.90268259 -0.10902539 207.67120508 -0.1091381 C231.86712556 -0.11277014 256.06301609 -0.1286957 280.2589251 -0.15199697 C305.82969463 -0.17657734 331.40044703 -0.19031212 356.97122872 -0.19150805 C359.77667372 -0.19167951 362.58211871 -0.19189495 365.38756371 -0.19214249 C366.07836233 -0.19219826 366.76916095 -0.19225402 367.48089287 -0.19231148 C378.61078661 -0.19346342 389.74064969 -0.20449739 400.87053307 -0.21902954 C412.05105362 -0.23337573 423.2315353 -0.23638905 434.41206609 -0.22858956 C440.47234246 -0.22467054 446.53251538 -0.22567355 452.59277916 -0.23964691 C458.13561531 -0.2523108 463.67826949 -0.25125486 469.22110511 -0.2390562 C471.23118704 -0.23708611 473.24128152 -0.24023753 475.25134574 -0.24890056 C477.97465224 -0.2598987 480.69730574 -0.25257257 483.42059326 -0.24050903 C484.60286343 -0.25190182 484.60286343 -0.25190182 485.80901784 -0.26352477 C490.31889237 -0.22012323 493.25826079 0.31738481 496.83613777 3.13142776 C497.97976889 5.41869 498.10115709 6.95995204 498.21113777 9.50642776 C498.26012215 10.27728714 498.30910652 11.04814651 498.35957527 11.84236526 C497.55649105 15.35436045 495.84471263 16.23438586 492.83613777 18.13142776 C489.89471298 18.51608885 487.33231388 18.66957594 484.39494514 18.63479233 C483.54311032 18.64060609 482.69127549 18.64641985 481.81362748 18.65240979 C478.94568339 18.6670628 476.07858802 18.65309983 473.21064949 18.63936234 C471.13924343 18.64396915 469.06784063 18.65032058 466.9964447 18.65827131 C461.29371598 18.67501785 455.59125392 18.66669403 449.88852406 18.65432644 C443.74256428 18.64530005 437.59665132 18.65923368 431.45070076 18.67024612 C420.10315641 18.68703135 408.75572113 18.68553941 397.40817946 18.67460025 C386.92580274 18.66454453 376.44345729 18.66190818 365.96107674 18.66669083 C365.26619997 18.66699637 364.57132321 18.66730191 363.85538958 18.66761671 C361.03477479 18.66886203 358.21416002 18.67013562 355.39354526 18.67145576 C328.92512732 18.68369629 302.45676373 18.67259075 275.98835418 18.65106817 C252.46427896 18.63208524 228.94029035 18.63378373 205.4162159 18.65291214 C178.9967211 18.67432305 152.57727434 18.68282826 126.15777206 18.67046309 C123.34224766 18.66918018 120.52672324 18.66792882 117.71119881 18.66669083 C117.01792688 18.66637452 116.32465496 18.66605821 115.61037479 18.66573231 C105.13367504 18.66117927 94.65700997 18.66650939 84.18031502 18.67660904 C72.26978907 18.68803356 60.35936544 18.68482759 48.44884348 18.66348606 C42.36828014 18.652951 36.28789287 18.64889567 30.2073307 18.66208267 C24.64600726 18.67396146 19.08502386 18.66751863 13.52373147 18.64617246 C11.50698505 18.64168722 9.49021017 18.64401544 7.47348189 18.65367562 C4.74101764 18.66576482 2.00973215 18.65344094 -0.7226696 18.63479233 C-1.51348671 18.64415699 -2.30430381 18.65352166 -3.11908507 18.6631701 C-6.84382868 18.61204154 -8.97630492 18.2501405 -12.15432739 16.23863935 C-14.16386223 14.13142776 -14.16386223 14.13142776 -14.75761223 11.91267776 C-14.50568813 5.78252472 -14.50568813 5.78252472 -12.85136223 2.63142776 C-9.15313593 -0.6558845 -4.65158242 -0.01038117 0 0 Z " fill="#4CD4E6" transform="translate(14.163862228393555,489.8685722351074)"/>
<path d="M0 0 C2.375 1.5 2.375 1.5 4 4 C5.54828038 10.88520997 5.54828038 10.88520997 3.47265625 15.10546875 C2.27962891 16.63107422 2.27962891 16.63107422 1.0625 18.1875 C0.61938477 18.76862549 0.17626953 19.34975098 -0.28027344 19.94848633 C-1.27939249 21.25423738 -2.2886639 22.55226173 -3.30615234 23.84375 C-5.14134168 26.17992645 -6.94206475 28.53998773 -8.73828125 30.90625 C-11.45816885 34.48925307 -14.18713489 38.06504147 -16.921875 41.63671875 C-20.67185249 46.54996536 -24.3489152 51.51301197 -28 56.5 C-33.5864476 64.12752689 -39.29276646 71.65644967 -45.0390625 79.1640625 C-49.42064326 84.89902727 -53.73542958 90.67759563 -58 96.5 C-63.5866242 104.12740017 -69.29276338 111.65644565 -75.0390625 119.1640625 C-79.42064326 124.89902727 -83.73542958 130.67759563 -88 136.5 C-93.5834433 144.12305729 -99.2624386 151.6675162 -105.04345703 159.14208984 C-108.32670837 163.40454261 -111.50521594 167.68786496 -114.4921875 172.1640625 C-121.9171721 183.16087012 -129.05229203 189.56548739 -140.75048828 195.76708984 C-144.37757009 197.75501725 -147.80226688 200.03191268 -151.25 202.3125 C-152.65675006 203.230397 -154.06432245 204.14703479 -155.47265625 205.0625 C-156.19984863 205.53558594 -156.92704102 206.00867188 -157.67626953 206.49609375 C-161.99762597 209.29285311 -166.34312851 212.05168015 -170.6875 214.8125 C-172.07727051 215.69578979 -172.07727051 215.69578979 -173.49511719 216.59692383 C-175.38644783 217.79867284 -177.27788725 219.00025068 -179.16943359 220.20166016 C-183.78134224 223.1317377 -188.39055701 226.06604578 -193 229 C-194.83331992 230.16668774 -196.66665327 231.33335439 -198.5 232.5 C-199.4075 233.0775 -200.315 233.655 -201.25 234.25 C-238.375 257.875 -238.375 257.875 -275.5 281.5 C-276.4089502 282.0784668 -277.31790039 282.65693359 -278.25439453 283.25292969 C-280.07291835 284.41008391 -281.89160116 285.56698831 -283.71044922 286.72363281 C-288.52175627 289.78372431 -293.32957155 292.84913545 -298.1328125 295.921875 C-299.13570312 296.56253906 -300.13859375 297.20320313 -301.171875 297.86328125 C-303.09737223 299.09346004 -305.0218996 300.32515861 -306.9453125 301.55859375 C-307.8115625 302.11160156 -308.6778125 302.66460937 -309.5703125 303.234375 C-310.33102051 303.72131836 -311.09172852 304.20826172 -311.87548828 304.70996094 C-316.78913078 307.69360688 -319.17248834 308.37741185 -325 307 C-327.89479637 305.26312218 -328.01335881 303.94847318 -328.875 300.625 C-329.01840982 296.46611529 -328.38702208 295.307754 -326 292 C-323.98901367 290.36938477 -323.98901367 290.36938477 -321.66796875 288.94140625 C-320.79873779 288.39822754 -319.92950684 287.85504883 -319.03393555 287.29541016 C-318.09461182 286.7235498 -317.15528809 286.15168945 -316.1875 285.5625 C-314.1769113 284.31147437 -312.16649937 283.06016458 -310.15625 281.80859375 C-309.12886719 281.17421387 -308.10148437 280.53983398 -307.04296875 279.88623047 C-302.39811174 277.00704519 -297.79342346 274.06590884 -293.1875 271.125 C-291.35814004 269.96083201 -289.52871188 268.7967712 -287.69921875 267.6328125 C-281.62670573 263.76474107 -275.56301364 259.88293848 -269.5 256 C-258.91293014 249.21971821 -248.31135854 242.46257897 -237.70166016 235.71777344 C-233.13353944 232.81326437 -228.56683261 229.9065338 -224 227 C-218.53583711 223.5223656 -213.07142198 220.04513245 -207.60546875 216.5703125 C-196.84459983 209.72814151 -186.09652908 202.86636038 -175.35888672 195.98779297 C-167.27688558 190.81213343 -159.18253015 185.65613341 -151.078125 180.515625 C-149.42551758 179.46603006 -147.7758747 178.41174604 -146.12988281 177.35180664 C-144.37451653 176.23770037 -142.58394147 175.17927106 -140.78515625 174.13671875 C-136.90187025 171.1575358 -134.42099548 167.54565829 -131.625 163.5625 C-130.38976525 161.84379702 -129.15271758 160.12639586 -127.9140625 158.41015625 C-126.9535498 157.07428467 -126.9535498 157.07428467 -125.97363281 155.71142578 C-122.72555696 151.2491385 -119.36133613 146.87722288 -116 142.5 C-110.9323403 135.88142503 -105.92562804 129.22494422 -101 122.5 C-96.07435157 115.77502794 -91.06645012 109.11952221 -86 102.5 C-80.25628366 94.9943524 -74.59794097 87.43312357 -69.0078125 79.8125 C-64.88622208 74.19471579 -60.71981221 68.6128714 -56.52929688 63.04638672 C-52.73252225 57.99527581 -48.98747669 52.90758248 -45.25 47.8125 C-39.51758469 40.00305312 -33.67456495 32.28328618 -27.77734375 24.59765625 C-24.69374063 20.57083335 -21.63883914 16.53239541 -18.68359375 12.41015625 C-17.93275513 11.36456543 -17.93275513 11.36456543 -17.16674805 10.29785156 C-16.25304771 9.01744296 -15.34639434 7.73196198 -14.44848633 6.44042969 C-10.31702079 0.6482363 -7.14343743 -0.7653683 0 0 Z " fill="#FC605B" transform="translate(388,4)"/>
</svg>
